<?xml version="1.0" encoding="UTF-8" standalone="no"?>
<svg
   xmlns:dc="http://purl.org/dc/elements/1.1/"
   xmlns:cc="http://creativecommons.org/ns#"
   xmlns:rdf="http://www.w3.org/1999/02/22-rdf-syntax-ns#"
   xmlns:svg="http://www.w3.org/2000/svg"
   xmlns="http://www.w3.org/2000/svg"
   viewBox="0 0 574.15472 93.630936"
   height="93.630936"
   width="574.15472"
   xml:space="preserve"
   id="svg2"
   version="1.1">
   <metadata
     id="metadata8">
     <rdf:RDF>
     <cc:Work
         rdf:about="">
         <dc:format>image/svg+xml</dc:format>
         <dc:type
           rdf:resource="http://purl.org/dc/dcmitype/StillImage" />
           </cc:Work>
           </rdf:RDF>
           </metadata>
           <defs
     id="defs6">
     <clipPath
       id="clipPath14"
       clipPathUnits="userSpaceOnUse">
       <path
         id="path12"
         d="M 0,0 H 595.276 V 841.89 H 0 Z" />
         </clipPath>
         <clipPath
       id="clipPath24"
       clipPathUnits="userSpaceOnUse">
       <path
         id="path22"
         d="M 0,841.89 H 595.276 V 0 H 0 Z" />
         </clipPath>
         </defs>
         <g
     clip-path="url(#clipPath14)"
     transform="matrix(1.3333333,0,0,-1.3333333,-102.91072,884.9048)"
     id="g10"><path
       id="path16"
       style="fill:#231f20;fill-opacity:1;fill-rule:nonzero;stroke:none"
       d="M 0.345,0 H 595.276 V 420.945 H 0.345 Z" /><g
       id="g18"><g
         clip-path="url(#clipPath24)"
         id="g20"><g
           transform="translate(176.4868,189.2384)"
           id="g26"><path
             id="path28"
             style="fill:#ffffff;fill-opacity:1;fill-rule:nonzero;stroke:none"
             d="m 0,0 h -14.953 v 0.72 c 0,4.382 -0.011,8.763 0.014,13.145 0.003,0.575 -0.181,0.701 -0.72,0.698 -3.866,-0.019 -7.734,-0.02 -11.6,10e-4 -0.538,0.002 -0.72,-0.118 -0.716,-0.694 0.026,-4.342 0.014,-8.684 0.014,-13.026 V 0.023 H -42.91 c -0.009,0.203 -0.027,0.416 -0.027,0.629 -0.001,14.011 -0.001,28.022 -0.001,42.033 0,0.784 0.001,0.786 0.798,0.786 4.472,0.001 8.943,-0.01 13.413,0.012 0.601,0.003 0.785,-0.149 0.781,-0.773 -0.027,-4.845 -0.007,-9.689 -0.027,-14.533 -0.002,-0.548 0.139,-0.717 0.704,-0.713 3.867,0.024 7.734,0.026 11.601,-10e-4 0.601,-0.004 0.73,0.188 0.727,0.753 -0.021,4.845 -10e-4,9.688 -0.026,14.533 -0.003,0.597 0.179,0.736 0.748,0.733 4.471,-0.02 8.942,-0.01 13.413,-0.011 0.803,0 0.805,-0.002 0.805,-0.787 C 0,28.633 0,14.582 0,0.531 Z" /></g><g
           transform="translate(416.25,232.6652)"
           id="g30"><path
             id="path32"
             style="fill:#ffffff;fill-opacity:1;fill-rule:nonzero;stroke:none"
             d="m 0,0 c 0.011,-0.236 0.024,-0.395 0.024,-0.553 -0.001,-7.397 0.035,-14.796 -0.02,-22.193 -0.028,-3.849 -0.677,-7.605 -2.337,-11.121 -2.404,-5.094 -6.429,-8.274 -11.856,-9.616 -5.833,-1.445 -11.657,-1.382 -17.344,0.733 -5.044,1.876 -8.379,5.482 -10.253,10.475 -1.224,3.258 -1.663,6.658 -1.678,10.112 -0.029,7.177 -0.008,14.353 -0.025,21.53 -0.001,0.529 0.15,0.682 0.683,0.68 4.633,-0.021 9.266,-0.021 13.898,0.001 0.545,0.003 0.667,-0.161 0.666,-0.682 -0.017,-7.177 -0.039,-14.353 0.013,-21.53 0.01,-1.327 0.185,-2.702 0.568,-3.97 0.92,-3.047 3.461,-4.592 6.649,-4.239 3.103,0.342 5.037,2.221 5.573,5.49 0.155,0.947 0.228,1.918 0.231,2.878 0.019,7.057 0.01,14.112 0.01,21.169 0,0.865 0.001,0.877 0.834,0.877 C -9.771,0.042 -5.18,0.038 -0.587,0.034 -0.41,0.033 -0.232,0.014 0,0" /></g><g
           transform="translate(214.5806,216.5314)"
           id="g34"><path
             id="path36"
             style="fill:#ffffff;fill-opacity:1;fill-rule:nonzero;stroke:none"
             d="m 0,0 v -0.64 c 0,-3.377 -0.012,-6.755 0.014,-10.131 0.004,-0.579 -0.163,-0.74 -0.742,-0.738 -5.334,0.024 -10.23,0.002 -15.544,0.026 -0.58,0.003 -0.774,-0.153 -0.741,-0.738 0.048,-0.842 0.047,-1.464 0,-2.305 -0.03,-0.555 0.183,-0.664 0.694,-0.662 5.438,0.015 10.876,0.009 16.314,0.009 h 2.678 v -12.095 h -34.649 v 0.632 c -0.001,13.826 0.002,27.877 -0.012,42.155 -0.001,0.53 0.142,0.679 0.675,0.678 11.037,-0.015 22.074,-0.012 33.111,-0.013 0.907,0 0.908,-0.001 0.908,-0.925 V 4.881 c 0,-0.86 -10e-4,-0.861 -0.839,-0.861 -6.042,0 -12.084,-0.007 -18.126,0.011 -0.565,0.002 -0.791,-0.127 -0.754,-0.726 0.049,-0.801 0.044,-1.835 0.002,-2.637 -0.028,-0.529 0.134,-0.683 0.673,-0.68 C -11.404,0.009 -5.97,0 -1.036,0 Z" /></g><g
           transform="translate(261.604,232.7072)"
           id="g38"><path
             id="path40"
             style="fill:#ffffff;fill-opacity:1;fill-rule:nonzero;stroke:none"
             d="m 0,0 h 0.755 c 11.058,-0.002 22.116,-0.009 33.173,0.007 0.604,0.001 0.726,-0.202 0.722,-0.759 -0.023,-3.558 -0.024,-7.116 0.001,-10.675 0.005,-0.575 -0.151,-0.745 -0.734,-0.743 -6.084,0.021 -12.167,0.006 -18.249,0.026 -0.564,10e-4 -0.787,-0.123 -0.747,-0.722 0.051,-0.78 0.048,-1.795 0,-2.576 -0.035,-0.574 0.135,-0.749 0.727,-0.746 4.975,0.022 9.95,0.012 14.925,0.012 h 0.804 c 0.018,-0.236 0.041,-0.411 0.042,-0.586 0.001,-3.417 -0.011,-6.835 0.012,-10.252 0.003,-0.538 -0.156,-0.672 -0.682,-0.67 -4.996,0.02 -9.991,0.012 -14.986,0.012 -0.829,0 -0.829,-10e-4 -0.829,-0.8 0,-0.864 0.017,-1.503 -0.008,-2.366 -0.011,-0.397 0.127,-0.527 0.52,-0.523 1.389,0.016 2.779,0.007 4.169,0.007 4.733,-0.001 9.467,-0.001 14.2,-0.002 h 0.793 V -43.452 H 0 Z" /></g><g
           transform="translate(443.501,205.8781)"
           id="g42"><path
             id="path44"
             style="fill:#ffffff;fill-opacity:1;fill-rule:nonzero;stroke:none"
             d="M 0,0 C -1.139,3.293 -2.254,6.518 -3.369,9.742 -3.415,9.74 -3.461,9.737 -3.507,9.734 -4.622,6.514 -5.737,3.293 -6.878,0 Z M 21.622,-16.633 H 5.702 c -0.502,1.452 -1.022,2.903 -1.5,4.367 -0.14,0.431 -0.33,0.591 -0.8,0.589 -4.571,-0.018 -9.143,-0.016 -13.715,-0.002 -0.41,10e-4 -0.607,-0.114 -0.735,-0.511 -0.425,-1.319 -0.892,-2.623 -1.339,-3.933 -0.107,-0.315 -0.203,-0.554 -0.644,-0.552 -5.035,0.019 -10.071,0.012 -15.106,0.014 -0.079,0 -0.158,0.015 -0.326,0.032 0.08,0.225 0.143,0.422 0.22,0.613 4.198,10.345 8.398,20.688 12.597,31.032 1.518,3.74 3.042,7.477 4.542,11.224 0.176,0.443 0.397,0.605 0.881,0.603 4.512,-0.02 9.023,-0.018 13.535,-0.003 0.491,0.002 0.736,-0.146 0.928,-0.622 5.155,-12.732 10.328,-25.455 15.497,-38.181 0.625,-1.538 1.243,-3.08 1.885,-4.67" /></g><g
           transform="translate(128.103,219.9122)"
           id="g46"><path
             id="path48"
             style="fill:#ffffff;fill-opacity:1;fill-rule:nonzero;stroke:none"
             d="M 0,0 H -11.987 V -30.653 H -26.962 V -0.034 H -38.953 C -38.973,0.228 -39,0.419 -39,0.611 c -0.002,3.82 0.011,7.64 -0.014,11.459 -0.004,0.588 0.175,0.74 0.75,0.739 12.528,-0.015 25.057,-0.015 37.585,-0.002 0.532,0 0.728,-0.115 0.724,-0.698 C 0.017,8.29 0.031,4.471 0.029,0.65 0.029,0.455 0.012,0.26 0,0" /></g><g
           transform="translate(498.0625,232.7091)"
           id="g50"><path
             id="path52"
             style="fill:#ffffff;fill-opacity:1;fill-rule:nonzero;stroke:none"
             d="m 0,0 v -12.801 h -11.976 v -30.657 h -14.961 v 30.645 h -0.826 c -3.523,0 -7.048,0.012 -10.571,-0.013 -0.551,-0.004 -0.666,0.168 -0.663,0.685 0.021,3.678 0.005,7.357 0.015,11.035 0.003,1.21 -0.211,1.103 1.143,1.103 C -29.563,0.003 -21.287,0 -13.011,0 H -1.05 Z" /></g><g
           transform="translate(352.8789,216.7286)"
           id="g54"><path
             id="path56"
             style="fill:#ffffff;fill-opacity:1;fill-rule:nonzero;stroke:none"
             d="M 0,0 C 0.013,-0.435 -0.035,-0.85 -0.142,-1.237 -0.194,-1.432 -0.262,-1.619 -0.343,-1.799 -0.398,-1.925 -0.465,-2.045 -0.534,-2.162 -0.764,-2.55 -1.062,-2.896 -1.428,-3.183 -1.508,-3.245 -1.59,-3.305 -1.675,-3.361 -1.932,-3.532 -2.214,-3.679 -2.522,-3.796 -3.004,-3.98 -3.527,-4.147 -4.035,-4.158 H -4.04 c -0.067,-0.002 -0.165,-0.003 -0.289,-0.004 -1.564,-0.027 -3.134,-0.02 -4.749,-0.016 -6.457,-0.009 -16.501,-0.004 -22.779,0 -1.526,-0.01 -3.066,0.003 -4.66,0.003 v 3.181 c 0,0.673 0.003,1.346 0.003,2.018 0.001,0.673 -10e-4,1.346 -0.008,2.019 -0.001,0.109 0.006,0.202 0.026,0.28 0.015,0.063 0.037,0.116 0.072,0.159 0.078,0.096 0.213,0.142 0.436,0.136 0.04,-10e-4 0.08,-10e-4 0.12,-0.002 2.017,-0.03 16.961,-0.039 25.891,-0.061 0.081,0.045 0.191,0.067 0.346,0.063 1.831,-0.042 3.663,-0.045 5.494,-0.092 0.046,-10e-4 0.085,-0.002 0.116,-0.003 0.436,-0.011 0.88,-0.113 1.3,-0.242 0.424,-0.13 0.803,-0.302 1.134,-0.512 0.165,-0.106 0.319,-0.22 0.46,-0.343 C -0.579,1.947 -0.222,1.337 -0.075,0.63 -0.033,0.428 -0.007,0.218 0,0 m 9.872,-12.536 c 1.334,1.208 2.437,2.53 3.293,4.051 1.746,3.101 2.295,6.451 2.002,9.952 -0.459,5.483 -3.01,9.627 -7.998,12.136 -3.093,1.555 -6.429,2.259 -9.855,2.309 -7.229,0.105 -23.944,0.065 -31.174,0.108 -0.186,0.001 -0.326,-0.017 -0.436,-0.055 -5.479,0.036 -10.959,0.022 -16.439,0.055 -0.611,0.003 -0.772,-0.166 -0.771,-0.78 0.019,-14.012 0.015,-28.024 0.015,-42.037 v -0.646 h 14.974 v 0.694 c 0.001,2.975 0.008,5.95 -0.006,8.926 -0.003,0.435 0.108,0.598 0.574,0.592 1.731,-0.026 3.464,-0.026 5.196,0 0.428,0.005 0.651,-0.15 0.843,-0.513 1.61,-3.058 3.245,-6.104 4.847,-9.166 0.226,-0.434 0.48,-0.589 0.972,-0.587 5.097,0.018 10.193,0.011 15.289,0.013 0.21,0 0.421,0.017 0.731,0.032 -1.932,3.425 -3.843,6.812 -5.756,10.203 3.95,-0.005 8.288,10e-4 9.431,0.018 0.428,0.005 0.652,-0.15 0.843,-0.513 1.611,-3.058 3.245,-6.104 4.847,-9.166 0.227,-0.434 0.479,-0.589 0.973,-0.587 5.095,0.018 10.192,0.011 15.288,0.013 0.211,0 0.422,0.017 0.731,0.032 -2.826,5.01 -5.606,9.938 -8.414,14.916" /></g><g
           transform="translate(237.4092,202.8331)"
           id="g58"><path
             id="path60"
             style="fill:#ffffff;fill-opacity:1;fill-rule:nonzero;stroke:none"
             d="m 0,0 v -13.565 h -14.928 v 43.417 c 0.201,0.009 0.395,0.026 0.589,0.026 10.938,0.001 21.875,0.001 32.812,0 0.891,0 0.892,0 0.892,-0.879 0,-3.639 -0.012,-7.278 0.013,-10.916 0.004,-0.57 -0.174,-0.703 -0.718,-0.701 -5.942,0.017 -11.884,0.012 -17.826,0.012 H 0.029 v -5.23 h 16.074 c 0.018,-0.266 0.045,-0.476 0.046,-0.687 C 16.151,7.878 16.138,4.279 16.164,0.681 16.167,0.106 15.979,-0.012 15.44,-0.01 10.566,0.01 5.692,0.001 0.817,0 Z" /></g><g
           transform="translate(176.4868,605.5851)"
           id="g62"><path
             id="path64"
             style="fill:#231f20;fill-opacity:1;fill-rule:nonzero;stroke:none"
             d="m 0,0 h -14.953 v 0.719 c 0,4.383 -0.011,8.764 0.014,13.147 0.003,0.574 -0.181,0.7 -0.72,0.697 -3.866,-0.02 -7.734,-0.02 -11.6,10e-4 -0.538,0.003 -0.72,-0.118 -0.716,-0.694 0.026,-4.342 0.014,-8.684 0.014,-13.026 V 0.023 H -42.91 c -0.009,0.203 -0.027,0.416 -0.027,0.629 -0.001,14.011 -0.001,28.021 -0.001,42.032 0,0.785 0.001,0.786 0.798,0.787 4.472,0 8.943,-0.011 13.413,0.012 0.601,0.003 0.785,-0.149 0.781,-0.773 -0.027,-4.844 -0.007,-9.689 -0.027,-14.533 -0.002,-0.548 0.139,-0.717 0.704,-0.713 3.867,0.024 7.734,0.026 11.601,-10e-4 0.601,-0.004 0.73,0.189 0.727,0.753 -0.021,4.844 -10e-4,9.689 -0.026,14.533 -0.003,0.596 0.179,0.736 0.748,0.733 4.471,-0.021 8.942,-0.011 13.413,-0.011 0.803,-10e-4 0.805,-0.003 0.805,-0.787 C 0,28.632 0,14.582 0,0.531 Z" /></g><g
           transform="translate(416.25,649.0123)"
           id="g66"><path
             id="path68"
             style="fill:#231f20;fill-opacity:1;fill-rule:nonzero;stroke:none"
             d="m 0,0 c 0.011,-0.237 0.024,-0.395 0.024,-0.553 -0.001,-7.398 0.035,-14.796 -0.02,-22.194 -0.028,-3.848 -0.677,-7.604 -2.337,-11.12 -2.404,-5.095 -6.429,-8.274 -11.856,-9.617 -5.833,-1.444 -11.657,-1.382 -17.344,0.734 -5.044,1.876 -8.379,5.481 -10.253,10.474 -1.224,3.259 -1.663,6.658 -1.678,10.113 -0.029,7.176 -0.008,14.353 -0.025,21.53 -0.001,0.529 0.15,0.681 0.683,0.679 4.633,-0.02 9.266,-0.021 13.898,0.001 0.545,0.003 0.667,-0.161 0.666,-0.681 -0.017,-7.177 -0.039,-14.354 0.013,-21.531 0.01,-1.327 0.185,-2.702 0.568,-3.969 0.92,-3.047 3.461,-4.592 6.649,-4.24 3.103,0.343 5.037,2.221 5.573,5.49 0.155,0.947 0.228,1.918 0.231,2.879 0.019,7.056 0.01,14.112 0.01,21.168 0,0.866 0.001,0.877 0.834,0.878 C -9.771,0.042 -5.18,0.038 -0.587,0.033 -0.41,0.033 -0.232,0.014 0,0" /></g><g
           transform="translate(214.5806,632.8781)"
           id="g70"><path
             id="path72"
             style="fill:#231f20;fill-opacity:1;fill-rule:nonzero;stroke:none"
             d="m 0,0 v -0.64 c 0,-3.377 -0.012,-6.754 0.014,-10.131 0.004,-0.579 -0.163,-0.74 -0.742,-0.737 -5.334,0.023 -10.23,10e-4 -15.544,0.025 -0.58,0.002 -0.774,-0.153 -0.741,-0.738 0.048,-0.842 0.047,-1.463 0,-2.305 -0.03,-0.555 0.183,-0.664 0.694,-0.663 5.438,0.016 10.876,0.01 16.314,0.01 h 2.678 v -12.096 h -34.649 v 0.633 c -0.001,13.826 0.002,27.877 -0.012,42.155 -0.001,0.529 0.142,0.679 0.675,0.678 11.037,-0.015 22.074,-0.012 33.111,-0.013 0.907,0 0.908,-0.001 0.908,-0.925 V 4.88 c 0,-0.859 -10e-4,-0.86 -0.839,-0.86 -6.042,0 -12.084,-0.008 -18.126,0.011 -0.565,0.002 -0.791,-0.127 -0.754,-0.726 0.049,-0.801 0.044,-1.835 0.002,-2.637 -0.028,-0.529 0.134,-0.682 0.673,-0.68 C -11.404,0.008 -5.97,0 -1.036,0 Z" /></g><g
           transform="translate(261.604,649.0533)"
           id="g74"><path
             id="path76"
             style="fill:#231f20;fill-opacity:1;fill-rule:nonzero;stroke:none"
             d="m 0,0 h 0.755 c 11.058,-0.002 22.116,-0.008 33.173,0.007 0.604,0.001 0.726,-0.201 0.722,-0.758 -0.023,-3.559 -0.024,-7.117 0.001,-10.675 0.005,-0.575 -0.151,-0.746 -0.734,-0.744 -6.084,0.021 -12.167,0.006 -18.249,0.026 -0.564,0.002 -0.787,-0.122 -0.747,-0.721 0.051,-0.781 0.048,-1.796 0,-2.577 -0.035,-0.573 0.135,-0.749 0.727,-0.746 4.975,0.022 9.95,0.013 14.925,0.013 h 0.804 c 0.018,-0.237 0.041,-0.411 0.042,-0.586 0.001,-3.418 -0.011,-6.835 0.012,-10.253 0.003,-0.537 -0.156,-0.671 -0.682,-0.669 -4.996,0.019 -9.991,0.012 -14.986,0.012 -0.829,0 -0.829,-0.001 -0.829,-0.8 0,-0.864 0.017,-1.503 -0.008,-2.367 -0.011,-0.396 0.127,-0.527 0.52,-0.522 1.389,0.016 2.779,0.006 4.169,0.006 4.733,-0.001 9.467,-0.001 14.2,-0.001 h 0.793 V -43.452 H 0 Z" /></g><g
           transform="translate(443.501,622.2247)"
           id="g78"><path
             id="path80"
             style="fill:#231f20;fill-opacity:1;fill-rule:nonzero;stroke:none"
             d="M 0,0 C -1.139,3.293 -2.254,6.518 -3.369,9.743 -3.415,9.74 -3.461,9.737 -3.507,9.734 -4.622,6.514 -5.737,3.292 -6.878,0 Z M 21.622,-16.632 H 5.702 c -0.502,1.451 -1.022,2.902 -1.5,4.366 -0.14,0.431 -0.33,0.591 -0.8,0.589 -4.571,-0.019 -9.143,-0.017 -13.715,-0.002 -0.41,10e-4 -0.607,-0.113 -0.735,-0.512 -0.425,-1.318 -0.892,-2.621 -1.339,-3.932 -0.107,-0.316 -0.203,-0.554 -0.644,-0.552 -5.035,0.019 -10.071,0.012 -15.106,0.013 -0.079,0 -0.158,0.016 -0.326,0.033 0.08,0.225 0.143,0.422 0.22,0.614 4.198,10.344 8.398,20.687 12.597,31.031 1.518,3.74 3.042,7.477 4.542,11.225 0.176,0.442 0.397,0.603 0.881,0.601 C -5.711,26.824 -1.2,26.825 3.312,26.84 3.803,26.841 4.048,26.694 4.24,26.217 9.395,13.486 14.568,0.763 19.737,-11.962 c 0.625,-1.539 1.243,-3.081 1.885,-4.67" /></g><g
           transform="translate(128.103,636.2589)"
           id="g82"><path
             id="path84"
             style="fill:#231f20;fill-opacity:1;fill-rule:nonzero;stroke:none"
             d="M 0,0 H -11.987 V -30.653 H -26.962 V -0.035 H -38.953 C -38.973,0.228 -39,0.419 -39,0.611 c -0.002,3.82 0.011,7.639 -0.014,11.459 -0.004,0.589 0.175,0.739 0.75,0.739 12.528,-0.016 25.057,-0.015 37.585,-0.002 0.532,0 0.728,-0.115 0.724,-0.697 C 0.017,8.29 0.031,4.47 0.029,0.651 0.029,0.455 0.012,0.26 0,0" /></g><g
           transform="translate(498.0625,649.0558)"
           id="g86"><path
             id="path88"
             style="fill:#231f20;fill-opacity:1;fill-rule:nonzero;stroke:none"
             d="m 0,0 v -12.8 h -11.976 v -30.658 h -14.961 v 30.645 h -0.826 c -3.523,0 -7.048,0.013 -10.571,-0.013 -0.551,-0.004 -0.666,0.168 -0.663,0.686 0.021,3.678 0.005,7.355 0.015,11.033 0.003,1.211 -0.211,1.104 1.143,1.105 C -29.563,0.003 -21.287,0 -13.011,0 H -1.05 Z" /></g><g
           transform="translate(352.8789,633.0748)"
           id="g90"><path
             id="path92"
             style="fill:#231f20;fill-opacity:1;fill-rule:nonzero;stroke:none"
             d="m 0,0 c 0.013,-0.434 -0.035,-0.849 -0.142,-1.237 -0.052,-0.194 -0.12,-0.382 -0.201,-0.561 -0.055,-0.126 -0.122,-0.246 -0.191,-0.364 -0.23,-0.388 -0.528,-0.733 -0.894,-1.02 -0.08,-0.063 -0.162,-0.122 -0.247,-0.179 -0.257,-0.171 -0.539,-0.317 -0.847,-0.435 -0.482,-0.184 -1.005,-0.351 -1.513,-0.362 H -4.04 c -0.067,-10e-4 -0.165,-0.003 -0.289,-0.004 -1.564,-0.027 -3.134,-0.019 -4.749,-0.015 -6.457,-0.009 -16.501,-0.004 -22.779,0 -1.526,-0.011 -3.066,0.002 -4.66,0.002 v 3.181 c 0,0.673 0.003,1.346 0.003,2.018 0.001,0.673 -10e-4,1.346 -0.008,2.019 -0.001,0.11 0.006,0.203 0.026,0.281 0.015,0.062 0.037,0.116 0.072,0.158 0.078,0.097 0.213,0.142 0.436,0.137 0.04,-0.001 0.08,-0.001 0.12,-0.002 2.017,-0.03 16.961,-0.039 25.891,-0.062 0.081,0.045 0.191,0.068 0.346,0.064 1.831,-0.042 3.663,-0.045 5.494,-0.092 0.046,-0.001 0.085,-0.002 0.116,-0.003 0.436,-0.011 0.88,-0.113 1.3,-0.242 0.424,-0.131 0.803,-0.303 1.134,-0.513 0.165,-0.105 0.319,-0.22 0.46,-0.343 C -0.579,1.948 -0.222,1.337 -0.075,0.631 -0.033,0.428 -0.007,0.218 0,0 m 9.872,-12.536 c 1.334,1.209 2.437,2.531 3.293,4.051 1.746,3.102 2.295,6.451 2.002,9.952 -0.459,5.483 -3.01,9.627 -7.998,12.136 -3.093,1.556 -6.429,2.26 -9.855,2.309 -7.229,0.105 -23.944,0.065 -31.174,0.108 -0.186,0.001 -0.326,-0.017 -0.436,-0.055 -5.479,0.037 -10.959,0.022 -16.439,0.055 -0.611,0.003 -0.772,-0.165 -0.771,-0.779 0.019,-14.012 0.015,-28.025 0.015,-42.038 v -0.645 h 14.974 v 0.693 c 0.001,2.976 0.008,5.951 -0.006,8.926 -0.003,0.436 0.108,0.598 0.574,0.592 1.731,-0.025 3.464,-0.025 5.196,0 0.428,0.006 0.651,-0.149 0.843,-0.513 1.61,-3.057 3.245,-6.103 4.847,-9.166 0.226,-0.433 0.48,-0.589 0.972,-0.587 5.097,0.019 10.193,0.011 15.289,0.013 0.21,0 0.421,0.018 0.731,0.032 -1.932,3.425 -3.843,6.813 -5.756,10.204 3.95,-0.005 8.288,0 9.431,0.017 0.428,0.006 0.652,-0.149 0.843,-0.513 1.611,-3.057 3.245,-6.103 4.847,-9.166 0.227,-0.433 0.479,-0.589 0.973,-0.587 5.095,0.019 10.192,0.011 15.288,0.013 0.211,0 0.422,0.018 0.731,0.032 -2.826,5.01 -5.606,9.939 -8.414,14.916" /></g><g
           transform="translate(237.4092,619.1798)"
           id="g94"><path
             id="path96"
             style="fill:#231f20;fill-opacity:1;fill-rule:nonzero;stroke:none"
             d="m 0,0 v -13.565 h -14.928 v 43.417 c 0.201,0.009 0.395,0.025 0.589,0.026 10.938,0.001 21.875,0 32.812,0 0.891,0 0.892,-0.001 0.892,-0.879 0,-3.639 -0.012,-7.278 0.013,-10.916 0.004,-0.57 -0.174,-0.703 -0.718,-0.701 -5.942,0.017 -11.884,0.011 -17.826,0.011 H 0.029 v -5.229 h 16.074 c 0.018,-0.266 0.045,-0.477 0.046,-0.687 C 16.151,7.878 16.138,4.279 16.164,0.681 16.167,0.106 15.979,-0.012 15.44,-0.01 10.566,0.009 5.692,0 0.817,0 Z" /></g></g></g></g></svg>